<?xml version="1.0" encoding="UTF-8" standalone="no"?>
<!-- Created with Inkscape (http://www.inkscape.org/) -->

<svg
   width="77.210892mm"
   height="86.445374mm"
   viewBox="0 0 77.210892 86.445375"
   version="1.1"
   id="defendit-shield-logo"
   inkscape:version="1.4 (86a8ad7, 2024-10-11)"
   sodipodi:docname="defendit-favicon.svg"
   xmlns:inkscape="http://www.inkscape.org/namespaces/inkscape"
   xmlns:sodipodi="http://sodipodi.sourceforge.net/DTD/sodipodi-0.dtd"
   xmlns="http://www.w3.org/2000/svg"
   xmlns:svg="http://www.w3.org/2000/svg">
  <sodipodi:namedview
     id="namedview1"
     pagecolor="#505050"
     bordercolor="#eeeeee"
     borderopacity="1"
     inkscape:showpageshadow="0"
     inkscape:pageopacity="0"
     inkscape:pagecheckerboard="0"
     inkscape:deskcolor="#505050"
     inkscape:document-units="mm"
     inkscape:zoom="3.0971277"
     inkscape:cx="73.455157"
     inkscape:cy="81.527152"
     inkscape:window-width="2400"
     inkscape:window-height="1261"
     inkscape:window-x="6141"
     inkscape:window-y="-9"
     inkscape:window-maximized="1"
     inkscape:current-layer="layer1" />
  <defs
     id="defs1" />
  <defs
     id="icon-defs1" />
  <g
     inkscape:label="Layer 1"
     inkscape:groupmode="layer"
     id="layer1"
     transform="translate(-83.040967,-119.87687)">
    <path
       id="logo-inner"
       d="m 121.80207,121.67483 c -0.34804,0 -1.89965,0.81363 -3.44803,1.80815 -7.93964,5.09949 -18.377306,8.89168 -28.941544,10.51489 -4.042495,0.62113 -4.1058,0.64369 -4.631006,1.65486 -0.366334,0.70526 -0.443972,2.49423 -0.439431,10.16035 0.0053,9.5322 0.229936,13.16111 1.07411,17.33107 1.898445,9.37768 7.400733,18.99166 15.486951,27.06097 4.16654,4.15785 11.14218,9.51298 16.98801,13.04162 1.8727,1.13039 3.58856,1.96097 4.05226,1.96097 1.51672,0 12.9139,-7.92858 18.44713,-12.8329 6.07562,-5.38509 11.58319,-12.74289 14.43081,-19.27953 3.44489,-7.90768 4.50401,-15.99879 4.0188,-30.69429 -0.18513,-5.60692 -0.30767,-6.87218 -0.71258,-7.36048 -0.37887,-0.45685 -1.46404,-0.75836 -4.81827,-1.33875 -11.92741,-2.06392 -20.48036,-5.14784 -27.90338,-10.06049 -1.63429,-1.08161 -3.25579,-1.96644 -3.60383,-1.96644 z m -0.1503,6.75924 c 0.14619,-0.0386 1.14834,0.51991 2.22711,1.24189 l 1.96146,1.3128 v 10.02203 10.02202 l -3.65777,3.31322 -3.65776,3.31272 -0.0799,-7.11329 -0.08,-7.11381 0.88585,-0.88184 c 2.28509,-2.27506 1.05037,-5.88885 -2.12174,-6.21047 -3.31198,-0.33581 -5.31641,3.51358 -3.08002,5.91484 l 0.74953,0.80446 -0.0778,13.87554 -0.0774,13.87555 -7.38145,-7.69754 -7.381436,-7.69703 -0.009,-2.84683 c -0.008,-2.64858 0.043,-2.89436 0.729556,-3.53642 1.68027,-1.57162 1.59879,-4.00455 -0.18377,-5.49789 -1.113529,-0.93285 -2.96381,-1.00989 -4.330387,-0.18025 -1.760267,1.06862 -2.056122,3.96718 -0.54879,5.37702 0.715697,0.6694 0.742039,0.8294 0.742039,4.52416 v 3.82953 l 7.552208,7.78644 c 4.15376,4.28225 8.31897,8.6003 9.25603,9.59607 l 1.70379,1.81067 v 8.81658 h 5e-4 c 0,4.84929 -0.10213,8.8171 -0.2272,8.8171 -0.28049,0 -6.11698,-4.50362 -7.76495,-5.99177 l -1.20344,-1.08658 -0.10092,-4.12767 c -0.0946,-3.86565 -0.0598,-4.17998 0.5463,-4.94709 0.94917,-1.20134 1.11638,-2.36272 0.51982,-3.61432 -0.88035,-1.84704 -2.99881,-2.45522 -4.7818,-1.37273 -1.875276,1.13851 -2.087007,3.7977 -0.41397,5.19929 0.82781,0.69352 0.88586,0.87869 0.88586,2.84181 0,1.15505 -0.12307,2.10029 -0.27315,2.10029 -0.36824,0 -2.923166,-3.23568 -4.577571,-5.79701 -3.887339,-6.01829 -6.12494,-12.69246 -6.777227,-20.21434 -0.332979,-3.83975 -0.427333,-14.67737 -0.14032,-16.10614 0.173254,-0.86243 0.232389,-0.88555 5.896868,-2.29753 3.147105,-0.78449 7.5054,-2.00762 9.68496,-2.71849 4.15984,-1.35674 10.6763,-4.31749 13.59689,-6.1775 0.94769,-0.60354 1.84274,-1.12874 1.98893,-1.16749 z m 8.32622,4.83425 c 0.1418,1.5e-4 1.1153,0.38652 2.1642,0.85839 1.04908,0.47195 3.03715,1.21215 4.41779,1.64487 2.33542,0.732 11.90707,3.0676 14.95663,3.64977 l 1.34375,0.25667 0.0769,5.34158 0.0769,5.34209 -7.46683,7.84136 c -6.3895,6.71021 -7.46984,7.9758 -7.48781,8.76965 -0.0115,0.51023 -0.007,1.93068 0.0115,3.15691 0.0312,2.1074 -0.0151,2.27488 -0.85141,3.05105 -2.36863,2.19848 -0.97886,5.86741 2.22264,5.86741 2.8517,0 4.35121,-3.02503 2.696,-5.43846 -0.68438,-0.99803 -0.77349,-1.42245 -0.77349,-3.68224 v -2.55371 l 5.30015,-5.36754 c 2.9149,-2.95206 5.47404,-5.55812 5.68713,-5.7915 0.2131,-0.23349 0.45174,-0.36031 0.53031,-0.28214 0.24085,0.23981 -0.45513,5.58654 -1.05463,8.1035 -1.93302,8.11578 -5.61629,14.39696 -12.38249,21.11669 -3.40737,3.38399 -8.52178,7.68678 -10.54635,8.87251 -0.29602,0.17333 -0.37301,-2.14241 -0.37301,-11.17754 v -11.39575 l 6.43617,-6.38322 c 3.53984,-3.51091 6.6299,-6.74472 6.86711,-7.18623 0.31333,-0.58318 0.43145,-1.87359 0.43145,-4.71738 v -3.91443 l 0.89583,-1.01568 c 0.73085,-0.82872 0.89586,-1.27976 0.89586,-2.45133 0,-2.40566 -1.72657,-3.84384 -4.21555,-3.51147 -3.01476,0.40259 -4.08335,3.89427 -1.88955,6.17402 0.73983,0.76888 0.77448,0.95419 0.77448,4.15362 v 3.34867 l -6.74026,6.73429 -6.73978,6.73377 -0.005,13.65933 -0.005,13.65933 -1.48408,0.96625 h -0.002 c -0.81624,0.53137 -1.72058,0.95741 -2.00989,0.94726 -0.28929,-0.0105 -1.16197,-0.4453 -1.939,-0.96624 l -1.41266,-0.94727 -9.7e-4,-16.94408 -9.6e-4,-16.94457 5.39751,-4.90465 c 2.96874,-2.6977 5.51992,-5.13013 5.66916,-5.40549 0.14924,-0.27537 0.27165,-4.7233 0.27165,-9.88423 0,-5.16091 0.11568,-9.38384 0.25718,-9.38384 z"
       style="stroke-width:0.966308" />
  </g>
</svg>
