<?xml version="1.0" encoding="UTF-8" standalone="no"?>
<!-- Created with Inkscape (http://www.inkscape.org/) -->

<svg
   width="198.88817mm"
   height="145.84447mm"
   viewBox="0 0 198.88817 145.84447"
   version="1.1"
   id="defendit-shield-logo"
   inkscape:version="1.4 (86a8ad7, 2024-10-11)"
   sodipodi:docname="defendit-shield-logo-no-center.svg"
   xmlns:inkscape="http://www.inkscape.org/namespaces/inkscape"
   xmlns:sodipodi="http://sodipodi.sourceforge.net/DTD/sodipodi-0.dtd"
   xmlns="http://www.w3.org/2000/svg"
   xmlns:svg="http://www.w3.org/2000/svg">
  <sodipodi:namedview
     id="namedview1"
     pagecolor="#505050"
     bordercolor="#eeeeee"
     borderopacity="1"
     inkscape:showpageshadow="0"
     inkscape:pageopacity="0"
     inkscape:pagecheckerboard="0"
     inkscape:deskcolor="#505050"
     inkscape:document-units="mm"
     inkscape:zoom="3.0971277"
     inkscape:cx="366.46858"
     inkscape:cy="274.44784"
     inkscape:window-width="3840"
     inkscape:window-height="2071"
     inkscape:window-x="1341"
     inkscape:window-y="297"
     inkscape:window-maximized="1"
     inkscape:current-layer="layer1" />
  <defs
     id="defs1" />
  <g
     inkscape:label="Layer 1"
     inkscape:groupmode="layer"
     id="layer1"
     transform="translate(-5.5559169,-75.577763)">
    <path
       id="logo-outer"
       d="m 104.22741,75.577763 c -1.31858,0 -2.98384,0.903648 -3.64008,1.975073 -1.136901,1.856182 -0.53005,4.838573 1.16892,5.743836 l 0.72037,0.383439 v 10.225215 10.224184 l -2.20039,2.02882 c -1.210297,1.11563 -2.322937,2.0283 -2.472197,2.0283 -0.14926,0 -0.271301,-1.78265 -0.271301,-3.96152 0,-3.31102 0.08371,-4.03082 0.51108,-4.383712 0.8892,-0.734172 1.352458,-2.238646 1.031978,-3.351216 -0.3985,-1.383346 -1.125087,-2.094386 -2.522843,-2.4691 -3.581743,-0.960225 -5.805953,3.751527 -2.903182,6.150008 0.403746,0.33366 0.484208,1.24985 0.484208,5.53713 v 5.13716 l -2.240174,1.27227 c -2.329679,1.32284 -5.591829,2.83704 -6.111771,2.83704 -0.176528,0 -0.30024,-1.43074 -0.30024,-3.47266 v -3.47265 l -2.703711,-3.98736 -2.703711,-3.98787 H 62.513164 44.951962 l -2.297018,-2.384349 c -1.912636,-1.984821 -2.266138,-2.508382 -2.110465,-3.125908 0.111235,-0.441258 -0.05736,-1.291386 -0.415995,-2.09858 -1.232404,-2.773809 -5.03163,-3.207335 -6.643523,-0.758093 -1.785966,2.713746 0.145108,6.28317 3.332614,6.160348 1.315936,-0.0507 1.412363,0.01447 3.98787,2.692342 l 2.639632,2.74454 h 17.446997 17.446997 l 1.871204,2.8453 1.871203,2.84582 -0.07648,3.81475 -0.07648,3.81528 -1.2361,0.43046 c -2.452703,0.85474 -9.484378,2.59559 -9.683647,2.39727 -0.112141,-0.11162 -0.252055,-1.88739 -0.310575,-3.94601 -0.09322,-3.27732 -0.186114,-3.82933 -0.748792,-4.43539 l -0.642854,-0.69195 -14.700395,-0.0119 -14.700395,-0.0114 -0.833541,-1.19993 c -2.632725,-3.79127 -8.528755,-0.63602 -7.064685,3.78065 0.427753,1.29041 1.169609,1.99465 2.628264,2.4939 1.568191,0.53676 2.85713,0.25291 3.995105,-0.88005 l 0.984436,-0.9803 13.97279,0.13643 13.972274,0.13642 v 3.17035 c 0,2.75039 -0.07132,3.19142 -0.540536,3.3352 -0.297418,0.0911 -3.093945,0.50761 -6.214091,0.92604 -4.060136,0.54452 -5.836233,0.90827 -6.24768,1.27899 -0.489763,0.44128 -0.587819,1.07036 -0.661459,4.24729 l -0.0863,3.72897 -12.115023,0.0806 c -11.967223,0.0795 -12.119278,0.0725 -12.456604,-0.55501 -0.187825,-0.34942 -0.78454,-0.90429 -1.326017,-1.233 -2.584929,-1.56921 -5.774325,0.30822 -5.774325,3.39928 0,2.21308 1.754895,4.0002 3.924309,3.9982 0.984749,-0.001 2.806719,-1.00503 3.071647,-1.6924 0.153093,-0.39708 1.852654,-0.45992 12.503629,-0.45992 h 12.326896 v 4.6147 4.61419 H 32.968714 c -16.980955,0 -21.043304,-0.077 -21.243148,-0.40307 -0.872308,-1.42306 -3.013016,-1.82454 -4.597652,-0.86248 -3.3162085,2.01333 -0.903523,7.4066 2.7729573,6.19859 0.5715917,-0.18782 1.2862077,-0.61315 1.5880167,-0.94517 0.534959,-0.58858 1.075275,-0.60358 21.512382,-0.60358 h 20.963578 v 4.61419 4.61471 H 40.09076 26.216671 l -0.605131,-1.02113 c -0.602033,-1.01588 -2.293741,-2.05517 -3.345015,-2.05517 -1.012374,0 -3.070483,1.2068 -3.610633,2.11718 -0.704765,1.18783 -0.681814,3.32921 0.04858,4.52169 0.615053,1.0042 2.302823,1.97456 3.433899,1.97456 0.944864,0 2.717988,-0.88314 3.22771,-1.60766 0.412323,-0.58616 0.857629,-0.60403 14.536581,-0.60203 7.760988,0.001 14.174666,0.0658 14.252876,0.14366 0.236227,0.23518 1.2716,6.66045 1.100708,6.83059 -0.0873,0.0869 -3.695747,0.15762 -8.019148,0.15762 h -7.861019 l -2.207101,2.09031 -2.2071,2.08979 -1.157035,-0.57619 c -0.987382,-0.49178 -1.318947,-0.52289 -2.263945,-0.21239 -1.441896,0.47378 -2.381533,1.9233 -2.167826,3.34398 0.433252,2.88016 4.256325,3.74266 5.675622,1.28054 0.288808,-0.501 0.862303,-0.99513 1.274341,-1.09812 0.412039,-0.10295 1.610998,-0.94 2.66392,-1.86035 l 1.914095,-1.67328 h 7.727694 7.727694 l 0.849043,2.38331 c 0.466879,1.31129 1.388649,3.57945 2.048454,5.04001 0.659806,1.46052 1.199927,2.7408 1.199927,2.8453 0,0.10449 -2.718595,0.19017 -6.040975,0.19017 -6.366252,0 -7.040458,0.12264 -8.298718,1.50688 -0.57305,0.63046 -0.826882,0.64648 -10.045899,0.64648 h -9.45782 l -4.058667,-4.07624 -4.059184,-4.07572 -0.137976,-1.81953 c -0.12274,-1.61875 -0.262042,-1.93304 -1.262455,-2.84582 -0.953335,-0.86983 -1.354129,-1.02629 -2.632398,-1.02629 -4.6351246,0 -5.512374,6.25012 -1.081588,7.70599 0.564112,0.1854 1.326194,0.24243 1.69292,0.1266 0.564227,-0.17829 1.384328,0.52909 5.334558,4.60024 l 4.668449,4.81108 10.890808,-0.008 10.891325,-0.008 1.196827,-1.07642 1.197342,-1.07694 h 6.463172 6.463171 l 2.843754,4.15323 2.844271,4.15272 h -5.689058 c -3.128752,0 -5.892928,0.0782 -6.142778,0.17363 -0.249854,0.0954 -2.510653,2.38541 -5.023983,5.08858 -4.211284,4.52937 -4.636843,4.90005 -5.426542,4.72736 -1.247572,-0.27279 -3.508821,0.80919 -4.109826,1.96629 -0.636781,1.22599 -0.617557,3.09808 0.04134,4.04988 1.294321,1.86969 3.185938,2.44375 5.17126,1.56942 1.629096,-0.71747 2.335775,-1.88936 2.335775,-3.87367 0,-1.38035 0.06968,-1.47732 4.222481,-5.86062 l 4.222482,-4.45658 h 6.485909 6.485909 l 4.355289,4.23592 c 4.648977,4.52222 9.068421,8.1766 14.362431,11.87576 3.772485,2.63601 11.589185,7.63817 13.594515,8.69973 v 5.1e-4 c 0.74994,0.39698 1.60372,0.72192 1.89756,0.72192 0.6199,0 9.82742,-5.79405 14.9009,-9.37669 1.91187,-1.35007 5.17041,-3.80832 7.24142,-5.46323 l 3.76566,-3.00912 14.15469,0.0801 14.1547,0.0801 2.69751,3.53777 2.6975,3.53777 -0.18293,1.56063 c -0.31181,2.65898 1.40425,4.74338 3.90571,4.74338 4.87146,0 5.40866,-7.35107 0.57825,-7.9127 -1.31302,-0.15265 -1.42838,-0.2598 -4.13153,-3.83542 -1.52951,-2.02317 -3.11233,-3.94467 -3.51761,-4.27003 -0.70109,-0.56268 -1.37337,-0.59169 -13.82758,-0.59169 -7.19977,0 -13.09067,-0.081 -13.09067,-0.17984 0,-0.0988 1.49483,-1.7568 3.32176,-3.68453 l 3.32176,-3.50469 12.66847,0.0119 12.669,0.0124 3.24425,4.12274 3.24424,4.12223 v 2.03398 c 0,1.95598 0.0446,2.0746 1.15445,3.08767 0.98458,0.8987 1.37562,1.05368 2.66186,1.05368 1.68958,0 2.84009,-0.69071 3.60598,-2.16524 1.26674,-2.43885 -0.65017,-5.50063 -3.46697,-5.53713 -0.7399,-0.01 -1.35672,-0.63494 -4.26383,-4.32377 -1.8694,-2.37207 -3.72369,-4.61658 -4.12016,-4.9878 -0.71696,-0.67093 -0.7869,-0.6749 -12.9005,-0.6749 -6.69882,0 -12.17968,-0.0242 -12.17962,-0.0537 5e-5,-0.0295 0.92668,-1.5526 2.05879,-3.38429 1.13212,-1.83168 2.24755,-3.64181 2.47892,-4.0225 l 0.42064,-0.69194 h 16.35559 16.35611 l 1.13792,0.76894 c 1.30676,0.88291 2.2492,0.96407 3.53053,0.30438 1.14389,-0.58893 1.53841,-1.32856 1.53841,-2.882 0,-2.66175 -2.72093,-3.94361 -5.03484,-2.37195 l -1.17202,0.79634 h -15.43627 c -12.15527,0 -15.43048,-0.0817 -15.41198,-0.38448 0.0129,-0.21151 0.67333,-2.16293 1.46762,-4.33668 l 1.44383,-3.95222 12.97802,0.0284 c 16.30898,0.0362 29.81782,0.35252 29.81782,0.69815 0,0.47858 1.98866,1.48414 2.93522,1.48414 1.31933,0 2.8975,-1.06291 3.41737,-2.30167 0.56851,-1.35453 0.55966,-1.82319 -0.0599,-3.12332 -1.01022,-2.11951 -3.9342,-2.64828 -5.77019,-1.04335 l -1.04386,0.91261 -20.84266,0.0873 -20.84214,0.0873 0.38396,-1.99988 c 0.21134,-1.0998 0.48053,-3.14181 0.59789,-4.53771 l 0.21343,-2.53783 h 21.42143 c 21.06819,0 21.42702,0.0104 21.75061,0.61237 0.77571,1.44306 3.63505,2.00734 5.15317,1.01699 0.85118,-0.55526 1.64642,-2.09515 1.64642,-3.18792 0,-1.1015 -0.96158,-2.75022 -1.87999,-3.22306 -1.5152,-0.7801 -2.99198,-0.51537 -4.45451,0.79943 -0.58102,0.52234 -1.89802,0.56141 -22.02605,0.65371 l -21.40851,0.0982 0.0879,-2.71767 0.0884,-2.71766 9.72809,0.0382 c 5.35045,0.021 10.03557,0.11477 10.41176,0.20877 0.96064,0.24005 2.65732,-0.38112 3.51038,-1.28519 1.08204,-1.14671 1.23196,-3.96944 0.27492,-5.17694 -0.7417,-0.93585 -2.30308,-1.73168 -3.39772,-1.73168 -1.97123,0 -3.99363,1.98524 -3.99563,3.92276 l -5.1e-4,0.99942 h -8.34265 -8.34316 v -1.99936 -1.99988 h 4.94182 4.94234 l 0.85162,-1.17822 c 0.46842,-0.64815 1.40795,-2.16795 2.08773,-3.37706 l 1.23558,-2.19831 2.73214,-0.007 c 2.27126,-0.006 2.86503,0.0962 3.51813,0.60772 1.87289,1.46674 4.60688,0.34843 4.92528,-2.01487 0.13976,-1.03744 0.0321,-1.40539 -0.64544,-2.2071 -1.04319,-1.23431 -2.28761,-1.51586 -3.7176,-0.84026 -0.60278,0.28478 -1.09606,0.64072 -1.09606,0.79065 0,0.14991 -1.49845,0.27234 -3.33003,0.27234 -2.44873,0 -3.50393,0.12162 -3.98683,0.45837 -0.36118,0.25187 -1.51617,1.84225 -2.56677,3.53467 l -1.91048,3.07733 -3.99045,-0.0155 -3.99098,-0.0155 v -7.2316 c 0,-4.30998 -0.12651,-7.46737 -0.31367,-7.81554 -0.35459,-0.65966 -1.78897,-1.11148 -4.39818,-1.38596 l -1.77664,-0.18707 v -2.13114 -2.13114 h 6.44509 6.44508 l 2.56212,3.15278 c 1.40905,1.73428 2.77613,3.32628 3.03806,3.53777 0.3306,0.26695 1.8521,0.38888 4.97489,0.39688 l 4.49843,0.0124 4.56096,5.50767 4.56148,5.50819 -0.35295,1.32447 c -0.69337,2.60544 1.16677,4.85972 4.01267,4.86172 1.15645,9.7e-4 1.52125,-0.16978 2.5492,-1.19321 1.00967,-1.00524 1.19993,-1.39732 1.19993,-2.47633 0,-2.32736 -1.51076,-4.01723 -3.65714,-4.09123 -0.66929,-0.0231 -1.43169,-0.77508 -4.06797,-4.01215 -1.78443,-2.1911 -4.11751,-5.00687 -5.1847,-6.25699 l -1.94045,-2.27273 h -4.57181 -4.57181 L 165.83192,117.6 c -2.20089,-2.68327 -3.09417,-3.55117 -3.80028,-3.69176 -0.5077,-0.10112 -3.79107,-0.18235 -7.2962,-0.18035 -9.95207,0.005 -9.92652,-0.006 -9.92652,4.50257 0,2.89654 -0.011,2.94139 -0.69505,2.77967 -0.38238,-0.0904 -1.47357,-0.25714 -2.42466,-0.37052 -0.95106,-0.11339 -1.87262,-0.29704 -2.04845,-0.40773 -0.17585,-0.11067 -0.41575,-2.00068 -0.53279,-4.20026 l -0.21291,-3.99923 3.80752,-3.76463 3.80701,-3.76463 4.42608,-0.16898 4.42609,-0.1695 1.06867,0.93483 c 2.09584,1.83209 5.35112,0.91705 6.29057,-1.76786 0.39929,-1.14116 0.39929,-1.45352 0,-2.59467 -1.12702,-3.221002 -5.90658,-3.640624 -7.38663,-0.64854 l -0.48317,0.97617 -5.05809,0.10025 -5.05861,0.10025 -4.43229,4.61471 -4.43228,4.61419 -0.0103,4.53771 c -0.006,2.49568 -0.10818,4.5377 -0.22686,4.5377 -0.11869,0 -1.36989,-0.35032 -2.78071,-0.77876 l -2.56522,-0.77928 v -5.71231 -5.7118 l 4.48035,-4.72219 4.48035,-4.722195 0.001,-2.707328 c 0.002,-2.643851 0.0222,-2.718663 0.8692,-3.198255 0.92204,-0.522058 1.90996,-2.246106 1.90996,-3.333646 0,-1.206968 -0.87997,-2.769931 -1.91254,-3.396692 -4.12419,-2.503396 -8.46907,2.654684 -5.1847,6.15518 0.83583,0.890842 0.91726,1.168467 0.91726,3.129524 v 2.151807 l -4.48035,4.722195 -4.48035,4.72219 v 5.55263 c 0,4.24183 -0.0915,5.55085 -0.38654,5.54385 -0.21242,-0.005 -1.35958,-0.40201 -2.5492,-0.88212 l -2.16265,-0.87281 -0.0811,-11.93054 c -0.0791,-11.662911 -0.0669,-11.940143 0.54261,-12.365136 1.4335,-0.999654 1.91789,-3.097346 1.0852,-4.700489 -0.66323,-1.276931 -1.6463,-1.849499 -3.17603,-1.849499 -1.78529,0 -2.96331,0.65777 -3.61063,2.015898 -0.69795,1.464348 -0.40833,3.021483 0.78238,4.206978 l 0.90433,0.900203 v 10.897525 c 0,5.99353 -0.11072,10.89701 -0.24598,10.89701 -0.3575,0 -4.5731,-2.62167 -6.05647,-3.76669 -0.69748,-0.5384 -2.34575,-2.012 -3.66283,-3.27422 l -2.39469,-2.29444 v -9.934274 c 0,-9.705371 0.0147,-9.941414 0.63459,-10.271725 0.93934,-0.500516 1.8351,-2.149217 1.83607,-3.380155 0.002,-2.239201 -1.97247,-4.302063 -4.11862,-4.302063 z m 0.27337,34.886757 2.30942,1.97249 c 3.92762,3.35492 7.52982,5.60737 12.57598,7.86412 6.62691,2.96371 14.39606,5.10348 23.10505,6.36395 2.54918,0.36896 5.01706,0.80938 5.48442,0.97824 l 0.84956,0.30696 v 14.12575 c 0,7.89841 -0.14448,15.44284 -0.32815,17.11317 -1.45906,13.26803 -7.01065,24.50695 -17.25889,34.93998 -6.34908,6.46359 -10.69022,9.90478 -20.75584,16.45378 -3.15943,2.05561 -5.88921,3.73776 -6.0663,3.73776 -0.528,0 -12.023236,-7.55803 -15.689479,-10.31565 -10.789445,-8.11543 -18.816418,-17.52112 -23.751005,-27.83086 -2.698883,-5.63871 -4.059111,-10.24222 -4.814693,-16.29668 -0.402579,-3.22586 -0.442193,-31.89386 -0.04444,-32.13861 0.154339,-0.095 2.274517,-0.43997 4.711857,-0.76688 16.012795,-2.14783 27.306031,-6.56766 37.292812,-14.59497 z m 0.78342,9.77202 c 0.0244,-0.002 -0.0966,0.009 -0.0734,0.002 -0.0113,0.002 -0.0147,0.003 -0.0258,0.006 0.033,-0.003 0.0662,-0.004 0.0992,-0.007 z m -37.346561,45.45407 c 0.05286,0.0751 0.0948,0.16566 0.139526,0.25218 -0.0119,-0.037 -0.01944,-0.0754 -0.03204,-0.11214 -0.01908,-0.0557 -0.141368,-0.18816 -0.107487,-0.14004 z" />
  </g>
  
</svg>
